<?xml version="1.0" encoding="UTF-8" standalone="no"?><!-- Generator: Gravit.io --><svg xmlns="http://www.w3.org/2000/svg" xmlns:xlink="http://www.w3.org/1999/xlink" style="isolation:isolate" viewBox="2299 934.121 1378.447 229.741" width="1378.447pt" height="229.741pt"><g><path d=" M 3353.407 1024.788 L 3353.416 1132.283 L 3353.416 1132.283 Q 3353.417 1138.852 3350.84 1144.619 L 3350.84 1144.619 L 3350.84 1144.619 Q 3348.263 1150.386 3343.856 1154.631 L 3343.856 1154.631 L 3343.856 1154.631 Q 3339.45 1158.876 3333.547 1161.358 L 3333.547 1161.358 L 3333.547 1161.358 Q 3327.643 1163.841 3320.825 1163.84 L 3320.825 1163.84 L 3232.856 1163.833 L 3232.856 1163.833 Q 3226.205 1163.833 3220.218 1161.349 L 3220.218 1161.349 L 3220.218 1161.349 Q 3214.231 1158.865 3209.824 1154.62 L 3209.824 1154.62 L 3209.824 1154.62 Q 3205.417 1150.374 3202.839 1144.606 L 3202.839 1144.606 L 3202.839 1144.606 Q 3200.261 1138.839 3200.261 1132.271 L 3200.261 1132.271 L 3200.252 1024.775 L 3200.252 1024.775 Q 3200.251 1018.207 3202.828 1012.44 L 3202.828 1012.44 L 3202.828 1012.44 Q 3205.405 1006.672 3209.812 1002.427 L 3209.812 1002.427 L 3209.812 1002.427 Q 3214.218 998.182 3220.204 995.7 L 3220.204 995.7 L 3220.204 995.7 Q 3226.191 993.217 3232.842 993.218 L 3232.842 993.218 L 3320.811 993.225 L 3320.811 993.225 Q 3327.629 993.226 3333.533 995.709 L 3333.533 995.709 L 3333.533 995.709 Q 3339.436 998.193 3343.843 1002.439 L 3343.843 1002.439 L 3343.843 1002.439 Q 3348.251 1006.684 3350.829 1012.452 L 3350.829 1012.452 L 3350.829 1012.452 Q 3353.407 1018.219 3353.407 1024.788 L 3353.407 1024.788 Z  M 3326.144 1017.587 L 3230.419 1017.587 L 3230.419 1138.839 L 3326.144 1138.839 L 3326.144 1017.587 Z  M 3615.646 966.976 L 3615.66 1131.023 L 3615.66 1131.023 Q 3615.66 1137.752 3613 1143.759 L 3613 1143.759 L 3613 1143.759 Q 3610.34 1149.766 3605.684 1154.252 L 3605.684 1154.252 L 3605.684 1154.252 Q 3601.028 1158.737 3594.792 1161.3 L 3594.792 1161.3 L 3594.792 1161.3 Q 3588.557 1163.862 3581.572 1163.862 L 3581.572 1163.862 L 3445.379 1163.851 L 3445.379 1163.851 Q 3438.394 1163.85 3432.158 1161.286 L 3432.158 1161.286 L 3432.158 1161.286 Q 3425.922 1158.723 3421.265 1154.237 L 3421.265 1154.237 L 3421.265 1154.237 Q 3416.609 1149.75 3413.948 1143.743 L 3413.948 1143.743 L 3413.948 1143.743 Q 3411.286 1137.735 3411.286 1131.006 L 3411.286 1131.006 L 3411.272 966.959 L 3411.272 966.959 Q 3411.272 960.231 3413.932 954.223 L 3413.932 954.223 L 3413.932 954.223 Q 3416.592 948.216 3421.248 943.811 L 3421.248 943.811 L 3421.248 943.811 Q 3425.904 939.406 3432.139 936.763 L 3432.139 936.763 L 3432.139 936.763 Q 3438.375 934.12 3445.36 934.121 L 3445.36 934.121 L 3581.553 934.132 L 3581.553 934.132 Q 3588.538 934.132 3594.774 936.776 L 3594.774 936.776 L 3594.774 936.776 Q 3601.01 939.42 3605.667 943.826 L 3605.667 943.826 L 3605.667 943.826 Q 3610.323 948.232 3612.984 954.24 L 3612.984 954.24 L 3612.984 954.24 Q 3615.645 960.248 3615.646 966.976 L 3615.646 966.976 Z  M 3581.572 966.959 L 3445.379 966.976 L 3445.379 1132.283 L 3581.572 1132.283 L 3581.572 966.959 Z  M 2299 1065.503 L 3677.447 1065.503 L 3677.447 1093.308 L 2299 1093.219 L 2299 1065.503 Z " fill="rgb(255,255,255)"/><g><path d=" M 2572.249 1043.918 C 2567.917 1039.586 2567.917 1032.564 2572.249 1028.232 L 2666.361 934.121 L 2682.046 949.806 L 2587.934 1043.918 C 2583.602 1048.249 2576.58 1048.249 2572.249 1043.918 Z " fill-rule="evenodd" fill="rgb(255,255,255)"/><path d=" M 2760.752 1043.918 C 2765.083 1039.586 2765.083 1032.564 2760.752 1028.232 L 2728.994 996.475 L 2666.64 934.121 L 2650.954 949.806 L 2745.066 1043.918 C 2749.397 1048.249 2756.42 1048.249 2760.752 1043.918 Z " fill-rule="evenodd" fill="rgb(255,255,255)"/></g><path d=" M 2590.25 1065.503 L 2723 1065.503 L 2742.75 1065.503 L 2742.75 1133.862 C 2742.75 1150.419 2729.307 1163.862 2712.75 1163.862 L 2620.25 1163.862 C 2603.693 1163.862 2590.25 1150.419 2590.25 1133.862 L 2590.25 1065.503 Z  M 2612.25 1065.503 L 2720.75 1065.503 L 2720.75 1126.862 C 2720.75 1135.141 2714.029 1141.862 2705.75 1141.862 L 2626.25 1141.862 C 2618.523 1141.862 2612.25 1135.589 2612.25 1127.862 L 2612.25 1065.503 Z " fill-rule="evenodd" fill="rgb(255,255,255)"/></g></svg>